<svg width="225" height="72" viewBox="0 0 225 72" fill="none" xmlns="http://www.w3.org/2000/svg">
<path d="M0 71.76H68V3.76H0V71.76Z" fill="black"/>
<path d="M76.128 31C75.5093 31 74.976 30.776 74.528 30.328C74.1013 29.88 73.888 29.3467 73.888 28.728V11.48C73.888 10.4133 74.24 9.624 74.944 9.112C75.648 8.57867 76.7253 8.312 78.176 8.312V27.288H86.816C87.8187 27.288 88.576 27.608 89.088 28.248C89.6 28.8667 89.856 29.784 89.856 31H76.128ZM95.294 13.208C94.526 13.208 93.886 12.984 93.374 12.536C92.8833 12.0667 92.638 11.4693 92.638 10.744C92.638 10.04 92.8833 9.464 93.374 9.016C93.886 8.54667 94.526 8.312 95.294 8.312C96.062 8.312 96.6913 8.54667 97.182 9.016C97.694 9.464 97.95 10.04 97.95 10.744C97.95 11.4693 97.694 12.0667 97.182 12.536C96.6913 12.984 96.062 13.208 95.294 13.208ZM93.278 17.144C93.278 16.2693 93.6087 15.6507 94.27 15.288C94.9313 14.904 95.934 14.712 97.278 14.712V28.856C97.278 29.7093 96.9473 30.328 96.286 30.712C95.6247 31.096 94.622 31.288 93.278 31.288V17.144ZM101.732 11.544C101.732 10.4987 102.105 9.69867 102.852 9.144C103.598 8.58933 104.654 8.312 106.02 8.312V18.584L116.74 8.312C117.273 8.696 117.7 9.13333 118.02 9.624C118.361 10.0933 118.532 10.5093 118.532 10.872C118.532 11.192 118.414 11.512 118.18 11.832C117.966 12.1307 117.636 12.4933 117.188 12.92L110.788 18.968L119.588 29.944C118.926 30.84 118.062 31.288 116.996 31.288C115.972 31.288 115.15 30.904 114.532 30.136L107.844 21.656L106.02 23.448V28.248C106.02 29.2933 105.678 30.0613 104.996 30.552C104.313 31.0427 103.225 31.288 101.732 31.288V11.544ZM128.552 31.288C127.229 31.288 126.024 31.032 124.936 30.52C123.848 29.9867 122.984 29.272 122.344 28.376C121.704 27.4587 121.384 26.4347 121.384 25.304V21.048C121.384 19.8533 121.714 18.776 122.376 17.816C123.037 16.856 123.912 16.0987 125 15.544C126.109 14.9893 127.304 14.712 128.584 14.712C129.842 14.712 130.994 14.9787 132.04 15.512C133.106 16.024 133.949 16.7493 134.568 17.688C135.186 18.6053 135.496 19.6613 135.496 20.856V22.648C135.496 23.1173 135.314 23.512 134.952 23.832C134.61 24.152 134.173 24.312 133.64 24.312H125.256V25.016C125.256 25.9333 125.533 26.68 126.088 27.256C126.642 27.832 127.474 28.12 128.584 28.12C129.65 28.12 130.44 27.8853 130.952 27.416C131.485 26.9467 131.752 26.3387 131.752 25.592C132.136 25.5493 132.402 25.528 132.552 25.528C133.341 25.528 133.96 25.7093 134.408 26.072C134.856 26.4133 135.08 26.904 135.08 27.544C135.08 28.1627 134.792 28.76 134.216 29.336C133.64 29.912 132.85 30.3813 131.848 30.744C130.845 31.1067 129.746 31.288 128.552 31.288ZM131.88 21.464V20.856C131.88 19.96 131.57 19.2347 130.952 18.68C130.333 18.1253 129.533 17.848 128.552 17.848C127.57 17.848 126.77 18.1253 126.152 18.68C125.554 19.2133 125.256 19.9387 125.256 20.856V21.464H131.88ZM83.104 67.288C81.2053 67.288 79.5093 66.9253 78.016 66.2C76.544 65.4747 75.392 64.4613 74.56 63.16C73.728 61.8587 73.312 60.376 73.312 58.712V52.824C73.312 51.16 73.7173 49.688 74.528 48.408C75.36 47.1067 76.5013 46.104 77.952 45.4C79.4027 44.6747 81.0667 44.312 82.944 44.312C84.8213 44.312 86.4853 44.6 87.936 45.176C89.408 45.7307 90.5493 46.52 91.36 47.544C92.1707 48.5467 92.576 49.6987 92.576 51C92.576 51.7893 92.3093 52.4187 91.776 52.888C91.264 53.336 90.5707 53.56 89.696 53.56C89.2693 53.56 88.8 53.496 88.288 53.368C88.3307 52.856 88.352 52.3547 88.352 51.864C88.352 50.7333 87.8507 49.816 86.848 49.112C85.8453 48.408 84.544 48.056 82.944 48.056C81.3653 48.056 80.0747 48.504 79.072 49.4C78.0907 50.2747 77.6 51.416 77.6 52.824V58.712C77.6 60.1413 78.112 61.304 79.136 62.2C80.16 63.096 81.4827 63.544 83.104 63.544C84.704 63.544 86.0053 63.192 87.008 62.488C88.0107 61.784 88.512 60.8773 88.512 59.768C88.512 59.256 88.4907 58.7653 88.448 58.296C88.9813 58.1893 89.4293 58.136 89.792 58.136C90.688 58.136 91.4027 58.3707 91.936 58.84C92.4693 59.3093 92.736 59.9493 92.736 60.76C92.736 62.0187 92.3307 63.1493 91.52 64.152C90.7093 65.1333 89.568 65.9013 88.096 66.456C86.6453 67.0107 84.9813 67.288 83.104 67.288ZM101.701 67.288C100.314 67.288 99.0557 67.0427 97.925 66.552C96.8157 66.04 95.941 65.336 95.301 64.44C94.661 63.544 94.341 62.5307 94.341 61.4V56.888C94.341 55.736 94.6503 54.6907 95.269 53.752C95.909 52.8133 96.7837 52.0773 97.893 51.544C99.0023 50.9893 100.272 50.712 101.701 50.712C103.13 50.712 104.4 50.9893 105.509 51.544C106.64 52.0773 107.514 52.8133 108.133 53.752C108.773 54.6907 109.093 55.736 109.093 56.888V61.4C109.093 62.5307 108.762 63.544 108.101 64.44C107.461 65.336 106.576 66.04 105.445 66.552C104.336 67.0427 103.088 67.288 101.701 67.288ZM101.701 63.864C102.768 63.864 103.6 63.6187 104.197 63.128C104.816 62.6373 105.125 61.976 105.125 61.144V57.08C105.125 56.2053 104.816 55.5013 104.197 54.968C103.6 54.4133 102.768 54.136 101.701 54.136C100.656 54.136 99.8237 54.4133 99.205 54.968C98.5863 55.5013 98.277 56.2053 98.277 57.08V61.144C98.277 61.976 98.5863 62.6373 99.205 63.128C99.8237 63.6187 100.656 63.864 101.701 63.864ZM111.607 53.784C111.607 52.8027 111.916 52.0453 112.535 51.512C113.153 50.9787 114.092 50.712 115.351 50.712V52.632C114.967 53.1013 114.711 53.4427 114.583 53.656L114.807 53.784C115.468 52.7813 116.172 52.024 116.919 51.512C117.665 50.9787 118.551 50.712 119.575 50.712C121.431 50.712 122.711 51.6187 123.415 53.432C123.948 52.5787 124.631 51.9173 125.463 51.448C126.295 50.9573 127.233 50.712 128.279 50.712C129.729 50.712 130.881 51.2453 131.735 52.312C132.609 53.3573 133.047 54.7013 133.047 56.344V64.856C133.047 65.7093 132.716 66.328 132.055 66.712C131.415 67.096 130.433 67.288 129.111 67.288V56.664C129.111 55.8747 128.929 55.2453 128.567 54.776C128.225 54.3067 127.692 54.072 126.967 54.072C126.199 54.072 125.548 54.3387 125.015 54.872C124.503 55.384 124.247 56.1947 124.247 57.304V64.856C124.247 65.7093 123.927 66.328 123.287 66.712C122.668 67.096 121.697 67.288 120.375 67.288V56.664C120.375 55.8533 120.204 55.224 119.863 54.776C119.521 54.3067 118.988 54.072 118.263 54.072C117.367 54.072 116.684 54.3813 116.215 55C115.767 55.5973 115.543 56.4187 115.543 57.464V64.856C115.543 65.7093 115.212 66.328 114.551 66.712C113.911 67.096 112.929 67.288 111.607 67.288V53.784ZM136.607 53.784C136.607 52.8027 136.916 52.0453 137.535 51.512C138.153 50.9787 139.092 50.712 140.351 50.712V52.632C139.967 53.1013 139.711 53.4427 139.583 53.656L139.807 53.784C140.468 52.7813 141.172 52.024 141.919 51.512C142.665 50.9787 143.551 50.712 144.575 50.712C146.431 50.712 147.711 51.6187 148.415 53.432C148.948 52.5787 149.631 51.9173 150.463 51.448C151.295 50.9573 152.233 50.712 153.279 50.712C154.729 50.712 155.881 51.2453 156.735 52.312C157.609 53.3573 158.047 54.7013 158.047 56.344V64.856C158.047 65.7093 157.716 66.328 157.055 66.712C156.415 67.096 155.433 67.288 154.111 67.288V56.664C154.111 55.8747 153.929 55.2453 153.567 54.776C153.225 54.3067 152.692 54.072 151.967 54.072C151.199 54.072 150.548 54.3387 150.015 54.872C149.503 55.384 149.247 56.1947 149.247 57.304V64.856C149.247 65.7093 148.927 66.328 148.287 66.712C147.668 67.096 146.697 67.288 145.375 67.288V56.664C145.375 55.8533 145.204 55.224 144.863 54.776C144.521 54.3067 143.988 54.072 143.263 54.072C142.367 54.072 141.684 54.3813 141.215 55C140.767 55.5973 140.543 56.4187 140.543 57.464V64.856C140.543 65.7093 140.212 66.328 139.551 66.712C138.911 67.096 137.929 67.288 136.607 67.288V53.784ZM168.583 67.288C167.26 67.288 166.055 67.032 164.967 66.52C163.879 65.9867 163.015 65.272 162.375 64.376C161.735 63.4587 161.415 62.4347 161.415 61.304V57.048C161.415 55.8533 161.745 54.776 162.407 53.816C163.068 52.856 163.943 52.0987 165.031 51.544C166.14 50.9893 167.335 50.712 168.615 50.712C169.873 50.712 171.025 50.9787 172.071 51.512C173.137 52.024 173.98 52.7493 174.599 53.688C175.217 54.6053 175.527 55.6613 175.527 56.856V58.648C175.527 59.1173 175.345 59.512 174.983 59.832C174.641 60.152 174.204 60.312 173.671 60.312H165.287V61.016C165.287 61.9333 165.564 62.68 166.119 63.256C166.673 63.832 167.505 64.12 168.615 64.12C169.681 64.12 170.471 63.8853 170.983 63.416C171.516 62.9467 171.783 62.3387 171.783 61.592C172.167 61.5493 172.433 61.528 172.583 61.528C173.372 61.528 173.991 61.7093 174.439 62.072C174.887 62.4133 175.111 62.904 175.111 63.544C175.111 64.1627 174.823 64.76 174.247 65.336C173.671 65.912 172.881 66.3813 171.879 66.744C170.876 67.1067 169.777 67.288 168.583 67.288ZM171.911 57.464V56.856C171.911 55.96 171.601 55.2347 170.983 54.68C170.364 54.1253 169.564 53.848 168.583 53.848C167.601 53.848 166.801 54.1253 166.183 54.68C165.585 55.2133 165.287 55.9387 165.287 56.856V57.464H171.911ZM186.831 54.168C185.572 54.168 184.548 54.5093 183.759 55.192C182.969 55.8533 182.575 56.6853 182.575 57.688V64.856C182.575 65.7093 182.255 66.328 181.615 66.712C180.975 67.096 179.972 67.288 178.607 67.288V53.784C178.607 52.8027 178.916 52.0453 179.535 51.512C180.175 50.9787 181.135 50.712 182.415 50.712V52.6C182.095 52.9627 181.839 53.3147 181.647 53.656L181.839 53.784C183.183 51.736 184.868 50.712 186.895 50.712C187.812 50.712 188.505 50.9573 188.975 51.448C189.444 51.9173 189.679 52.5147 189.679 53.24C189.679 53.7947 189.529 54.264 189.231 54.648C188.655 54.328 187.855 54.168 186.831 54.168ZM197.862 67.288C196.475 67.288 195.248 67.0427 194.182 66.552C193.115 66.04 192.283 65.336 191.686 64.44C191.088 63.544 190.79 62.5307 190.79 61.4V56.92C190.79 55.704 191.088 54.6267 191.686 53.688C192.283 52.7493 193.115 52.024 194.182 51.512C195.248 50.9787 196.464 50.712 197.83 50.712C199.11 50.712 200.24 50.8933 201.222 51.256C202.224 51.6187 203.003 52.1307 203.558 52.792C204.112 53.432 204.39 54.1787 204.39 55.032C204.39 55.6933 204.134 56.2267 203.622 56.632C203.11 57.0373 202.438 57.24 201.606 57.24C201.371 57.24 201.2 57.2293 201.094 57.208C201.094 56.2907 200.795 55.5547 200.198 55C199.622 54.4453 198.864 54.168 197.926 54.168C196.987 54.168 196.219 54.4347 195.622 54.968C195.046 55.5013 194.758 56.2053 194.758 57.08V61.112C194.758 61.9227 195.056 62.584 195.654 63.096C196.251 63.5867 197.019 63.832 197.958 63.832C198.896 63.832 199.664 63.5547 200.262 63C200.859 62.424 201.158 61.6987 201.158 60.824C201.286 60.8027 201.467 60.792 201.702 60.792C202.534 60.792 203.206 60.984 203.718 61.368C204.23 61.752 204.486 62.2747 204.486 62.936C204.486 63.7893 204.198 64.5467 203.622 65.208C203.067 65.848 202.288 66.36 201.286 66.744C200.283 67.1067 199.142 67.288 197.862 67.288ZM214.52 67.288C213.198 67.288 211.992 67.032 210.904 66.52C209.816 65.9867 208.952 65.272 208.312 64.376C207.672 63.4587 207.352 62.4347 207.352 61.304V57.048C207.352 55.8533 207.683 54.776 208.344 53.816C209.006 52.856 209.88 52.0987 210.968 51.544C212.078 50.9893 213.272 50.712 214.552 50.712C215.811 50.712 216.963 50.9787 218.008 51.512C219.075 52.024 219.918 52.7493 220.536 53.688C221.155 54.6053 221.464 55.6613 221.464 56.856V58.648C221.464 59.1173 221.283 59.512 220.92 59.832C220.579 60.152 220.142 60.312 219.608 60.312H211.224V61.016C211.224 61.9333 211.502 62.68 212.056 63.256C212.611 63.832 213.443 64.12 214.552 64.12C215.619 64.12 216.408 63.8853 216.92 63.416C217.454 62.9467 217.72 62.3387 217.72 61.592C218.104 61.5493 218.371 61.528 218.52 61.528C219.31 61.528 219.928 61.7093 220.376 62.072C220.824 62.4133 221.048 62.904 221.048 63.544C221.048 64.1627 220.76 64.76 220.184 65.336C219.608 65.912 218.819 66.3813 217.816 66.744C216.814 67.1067 215.715 67.288 214.52 67.288ZM217.848 57.464V56.856C217.848 55.96 217.539 55.2347 216.92 54.68C216.302 54.1253 215.502 53.848 214.52 53.848C213.539 53.848 212.739 54.1253 212.12 54.68C211.523 55.2133 211.224 55.9387 211.224 56.856V57.464H217.848Z" fill="#F08804"/>
</svg>
